<svg xmlns="http://www.w3.org/2000/svg" xmlns:xlink="http://www.w3.org/1999/xlink" width="416" zoomAndPan="magnify" viewBox="0 0 312 247.499998" height="330" preserveAspectRatio="xMidYMid meet" version="1.2"><defs/><g id="eca0c4231f"><g style="fill:#000000;fill-opacity:1;"><g transform="translate(48.479299, 166.598597)"><path style="stroke:none" d="M 56.964844 -2.984375 C 60.316406 -1.035156 64.105469 -0.0625 68.339844 -0.0625 C 72.570312 -0.0625 76.339844 -1.035156 79.644531 -2.980469 C 82.957031 -4.929688 85.566406 -7.597656 87.476562 -10.988281 C 89.390625 -14.386719 90.347656 -18.371094 90.347656 -22.945312 L 90.347656 -66.585938 C 90.347656 -69.128906 90.960938 -71.441406 92.195312 -73.527344 C 93.414062 -75.589844 95.035156 -77.234375 97.058594 -78.457031 C 99.105469 -79.695312 101.402344 -80.316406 103.953125 -80.316406 C 106.417969 -80.316406 108.671875 -79.695312 110.71875 -78.457031 C 112.75 -77.230469 114.355469 -75.578125 115.535156 -73.503906 C 116.714844 -71.421875 117.304688 -69.117188 117.304688 -66.585938 L 117.304688 0 L 115.738281 0 L 115.738281 -1.566406 L 127.777344 -1.566406 L 127.777344 0 L 126.210938 0 L 126.210938 -64.953125 C 126.210938 -69.285156 125.269531 -73.171875 123.390625 -76.617188 C 121.523438 -80.042969 118.914062 -82.75 115.566406 -84.734375 C 112.21875 -86.71875 108.347656 -87.714844 103.953125 -87.714844 C 99.472656 -87.714844 95.558594 -86.71875 92.210938 -84.734375 C 88.859375 -82.746094 86.230469 -80.039062 84.316406 -76.605469 C 82.402344 -73.164062 81.445312 -69.28125 81.445312 -64.953125 L 81.445312 -21.316406 C 81.445312 -18.695312 80.851562 -16.363281 79.664062 -14.320312 C 78.488281 -12.300781 76.910156 -10.675781 74.933594 -9.449219 C 72.925781 -8.207031 70.726562 -7.585938 68.339844 -7.585938 C 65.957031 -7.585938 63.746094 -8.203125 61.699219 -9.441406 C 59.679688 -10.664062 58.0625 -12.28125 56.839844 -14.300781 C 55.605469 -16.34375 54.984375 -18.683594 54.984375 -21.316406 L 54.984375 -64.953125 C 54.984375 -69.285156 54.046875 -73.171875 52.167969 -76.617188 C 50.296875 -80.042969 47.691406 -82.75 44.34375 -84.734375 C 40.996094 -86.71875 37.082031 -87.714844 32.601562 -87.714844 C 28.207031 -87.714844 24.335938 -86.71875 20.988281 -84.734375 C 17.640625 -82.75 15.03125 -80.042969 13.164062 -76.617188 C 11.285156 -73.171875 10.34375 -69.285156 10.34375 -64.953125 L 10.34375 0 L 8.777344 0 L 8.777344 -1.566406 L 20.816406 -1.566406 L 20.816406 0 L 19.246094 0 L 19.246094 -66.585938 C 19.246094 -69.117188 19.839844 -71.421875 21.019531 -73.503906 C 22.199219 -75.578125 23.804688 -77.230469 25.835938 -78.457031 C 27.882812 -79.695312 30.136719 -80.316406 32.601562 -80.316406 C 35.0625 -80.316406 37.332031 -79.699219 39.417969 -78.46875 C 41.488281 -77.242188 43.136719 -75.597656 44.359375 -73.527344 C 45.589844 -71.441406 46.207031 -69.128906 46.207031 -66.585938 L 46.207031 -22.945312 C 46.207031 -18.371094 47.164062 -14.386719 49.078125 -10.988281 C 50.988281 -7.601562 53.617188 -4.933594 56.964844 -2.984375 Z M 55.390625 -0.273438 C 51.546875 -2.507812 48.535156 -5.566406 46.347656 -9.449219 C 44.164062 -13.324219 43.074219 -17.824219 43.074219 -22.945312 L 43.074219 -66.585938 C 43.074219 -68.554688 42.601562 -70.339844 41.660156 -71.929688 C 40.710938 -73.539062 39.433594 -74.816406 37.824219 -75.769531 C 36.230469 -76.710938 34.492188 -77.179688 32.601562 -77.179688 C 30.71875 -77.179688 29.003906 -76.710938 27.457031 -75.777344 C 25.894531 -74.832031 24.65625 -73.554688 23.746094 -71.953125 C 22.835938 -70.355469 22.382812 -68.566406 22.382812 -66.585938 L 22.382812 1.566406 L 7.210938 1.566406 L 7.210938 -64.953125 C 7.210938 -69.820312 8.277344 -74.207031 10.410156 -78.117188 C 12.554688 -82.050781 15.546875 -85.152344 19.390625 -87.429688 C 23.230469 -89.710938 27.632812 -90.847656 32.601562 -90.847656 C 37.652344 -90.847656 42.101562 -89.710938 45.941406 -87.429688 C 49.78125 -85.152344 52.777344 -82.050781 54.917969 -78.117188 C 57.054688 -74.207031 58.121094 -69.820312 58.121094 -64.953125 L 58.121094 -21.316406 C 58.121094 -19.269531 58.589844 -17.46875 59.523438 -15.921875 C 60.476562 -14.34375 61.742188 -13.078125 63.320312 -12.125 C 64.867188 -11.1875 66.542969 -10.722656 68.339844 -10.722656 C 70.132812 -10.722656 71.78125 -11.1875 73.28125 -12.117188 C 74.816406 -13.066406 76.039062 -14.328125 76.953125 -15.898438 C 77.855469 -17.453125 78.308594 -19.257812 78.308594 -21.316406 L 78.308594 -64.953125 C 78.308594 -69.824219 79.398438 -74.214844 81.578125 -78.128906 C 83.765625 -82.054688 86.777344 -85.15625 90.613281 -87.429688 C 94.453125 -89.710938 98.898438 -90.847656 103.953125 -90.847656 C 108.917969 -90.847656 113.324219 -89.710938 117.164062 -87.429688 C 121.007812 -85.152344 124 -82.050781 126.144531 -78.117188 C 128.277344 -74.207031 129.34375 -69.820312 129.34375 -64.953125 L 129.34375 1.566406 L 114.171875 1.566406 L 114.171875 -66.585938 C 114.171875 -68.566406 113.71875 -70.355469 112.808594 -71.953125 C 111.898438 -73.554688 110.660156 -74.832031 109.097656 -75.777344 C 107.550781 -76.710938 105.832031 -77.179688 103.953125 -77.179688 C 101.984375 -77.179688 100.230469 -76.710938 98.679688 -75.777344 C 97.109375 -74.824219 95.847656 -73.542969 94.894531 -71.929688 C 93.953125 -70.339844 93.480469 -68.554688 93.480469 -66.585938 L 93.480469 -22.945312 C 93.480469 -17.824219 92.390625 -13.324219 90.207031 -9.449219 C 88.019531 -5.570312 85.03125 -2.511719 81.234375 -0.277344 C 77.4375 1.957031 73.136719 3.070312 68.339844 3.070312 C 63.542969 3.070312 59.226562 1.957031 55.390625 -0.273438 Z M 55.390625 -0.273438 "/></g></g><g style="fill:#000000;fill-opacity:1;"><g transform="translate(185.021741, 166.598597)"><path style="stroke:none" d="M 24.363281 -3.457031 C 28.691406 -1.195312 33.613281 -0.0625 39.121094 -0.0625 C 44.632812 -0.0625 49.53125 -1.195312 53.816406 -3.457031 C 58.074219 -5.703125 61.425781 -8.835938 63.867188 -12.851562 C 66.304688 -16.867188 67.523438 -21.566406 67.523438 -26.960938 L 67.523438 -63.949219 L 69.09375 -63.949219 L 69.09375 -62.382812 L 57.429688 -62.382812 L 57.429688 -63.949219 L 58.996094 -63.949219 L 58.996094 -27.085938 C 58.996094 -22.945312 58.0625 -19.351562 56.195312 -16.296875 C 54.335938 -13.257812 51.878906 -10.917969 48.832031 -9.277344 C 45.796875 -7.648438 42.519531 -6.832031 38.996094 -6.832031 C 35.558594 -6.832031 32.320312 -7.648438 29.289062 -9.277344 C 26.234375 -10.917969 23.796875 -13.265625 21.976562 -16.3125 C 20.15625 -19.359375 19.246094 -22.953125 19.246094 -27.085938 L 19.246094 -63.949219 L 20.816406 -63.949219 L 20.816406 -62.382812 L 9.152344 -62.382812 L 9.152344 -63.949219 L 10.722656 -63.949219 L 10.722656 -26.960938 C 10.722656 -21.5625 11.921875 -16.859375 14.324219 -12.84375 C 16.722656 -8.832031 20.070312 -5.703125 24.363281 -3.457031 Z M 22.910156 -0.679688 C 18.09375 -3.199219 14.335938 -6.71875 11.632812 -11.234375 C 8.933594 -15.746094 7.585938 -20.988281 7.585938 -26.960938 L 7.585938 -65.519531 L 22.382812 -65.519531 L 22.382812 -27.085938 C 22.382812 -23.527344 23.144531 -20.472656 24.667969 -17.917969 C 26.191406 -15.367188 28.226562 -13.40625 30.773438 -12.039062 C 33.34375 -10.660156 36.082031 -9.96875 38.996094 -9.96875 C 41.996094 -9.96875 44.777344 -10.660156 47.347656 -12.039062 C 49.898438 -13.410156 51.957031 -15.375 53.523438 -17.933594 C 55.082031 -20.484375 55.863281 -23.535156 55.863281 -27.085938 L 55.863281 -65.519531 L 70.660156 -65.519531 L 70.660156 -26.960938 C 70.660156 -20.984375 69.289062 -15.738281 66.542969 -11.222656 C 63.804688 -6.714844 60.046875 -3.199219 55.277344 -0.683594 C 50.535156 1.820312 45.148438 3.070312 39.121094 3.070312 C 33.097656 3.070312 27.695312 1.820312 22.910156 -0.679688 Z M 22.910156 -0.679688 "/></g></g><g style="fill:#ffffff;fill-opacity:1;"><g transform="translate(48.479299, 166.598597)"><path style="stroke:none" d="M 68.34375 1.5 C 63.820312 1.5 59.765625 0.457031 56.171875 -1.625 C 52.578125 -3.71875 49.753906 -6.582031 47.703125 -10.21875 C 45.660156 -13.851562 44.640625 -18.097656 44.640625 -22.953125 L 44.640625 -66.578125 C 44.640625 -68.835938 44.09375 -70.882812 43 -72.71875 C 41.914062 -74.5625 40.453125 -76.023438 38.609375 -77.109375 C 36.773438 -78.203125 34.769531 -78.75 32.59375 -78.75 C 30.425781 -78.75 28.441406 -78.203125 26.640625 -77.109375 C 24.847656 -76.023438 23.425781 -74.5625 22.375 -72.71875 C 21.332031 -70.882812 20.8125 -68.835938 20.8125 -66.578125 L 20.8125 0 L 8.78125 0 L 8.78125 -64.953125 C 8.78125 -69.546875 9.78125 -73.679688 11.78125 -77.359375 C 13.789062 -81.046875 16.59375 -83.953125 20.1875 -86.078125 C 23.78125 -88.210938 27.914062 -89.28125 32.59375 -89.28125 C 37.363281 -89.28125 41.546875 -88.210938 45.140625 -86.078125 C 48.734375 -83.953125 51.53125 -81.046875 53.53125 -77.359375 C 55.539062 -73.679688 56.546875 -69.546875 56.546875 -64.953125 L 56.546875 -21.3125 C 56.546875 -18.976562 57.085938 -16.910156 58.171875 -15.109375 C 59.265625 -13.304688 60.707031 -11.863281 62.5 -10.78125 C 64.300781 -9.695312 66.25 -9.15625 68.34375 -9.15625 C 70.425781 -9.15625 72.34375 -9.695312 74.09375 -10.78125 C 75.851562 -11.863281 77.253906 -13.304688 78.296875 -15.109375 C 79.347656 -16.910156 79.875 -18.976562 79.875 -21.3125 L 79.875 -64.953125 C 79.875 -69.546875 80.894531 -73.679688 82.9375 -77.359375 C 84.988281 -81.046875 87.8125 -83.953125 91.40625 -86.078125 C 95 -88.210938 99.179688 -89.28125 103.953125 -89.28125 C 108.628906 -89.28125 112.765625 -88.210938 116.359375 -86.078125 C 119.953125 -83.953125 122.75 -81.046875 124.75 -77.359375 C 126.757812 -73.679688 127.765625 -69.546875 127.765625 -64.953125 L 127.765625 0 L 115.734375 0 L 115.734375 -66.578125 C 115.734375 -68.835938 115.207031 -70.882812 114.15625 -72.71875 C 113.113281 -74.5625 111.691406 -76.023438 109.890625 -77.109375 C 108.097656 -78.203125 106.117188 -78.75 103.953125 -78.75 C 101.691406 -78.75 99.660156 -78.203125 97.859375 -77.109375 C 96.066406 -76.023438 94.625 -74.5625 93.53125 -72.71875 C 92.445312 -70.882812 91.90625 -68.835938 91.90625 -66.578125 L 91.90625 -22.953125 C 91.90625 -18.097656 90.878906 -13.851562 88.828125 -10.21875 C 86.785156 -6.582031 83.988281 -3.71875 80.4375 -1.625 C 76.882812 0.457031 72.851562 1.5 68.34375 1.5 Z M 68.34375 1.5 "/></g></g><g style="fill:#ffffff;fill-opacity:1;"><g transform="translate(185.021741, 166.598597)"><path style="stroke:none" d="M 39.125 1.5 C 33.351562 1.5 28.1875 0.3125 23.625 -2.0625 C 19.070312 -4.445312 15.519531 -7.769531 12.96875 -12.03125 C 10.425781 -16.300781 9.15625 -21.273438 9.15625 -26.953125 L 9.15625 -63.953125 L 20.8125 -63.953125 L 20.8125 -27.078125 C 20.8125 -23.234375 21.644531 -19.910156 23.3125 -17.109375 C 24.988281 -14.316406 27.226562 -12.164062 30.03125 -10.65625 C 32.832031 -9.15625 35.820312 -8.40625 39 -8.40625 C 42.257812 -8.40625 45.285156 -9.15625 48.078125 -10.65625 C 50.878906 -12.164062 53.132812 -14.316406 54.84375 -17.109375 C 56.5625 -19.910156 57.421875 -23.234375 57.421875 -27.078125 L 57.421875 -63.953125 L 69.09375 -63.953125 L 69.09375 -26.953125 C 69.09375 -21.273438 67.796875 -16.300781 65.203125 -12.03125 C 62.609375 -7.769531 59.054688 -4.445312 54.546875 -2.0625 C 50.035156 0.3125 44.894531 1.5 39.125 1.5 Z M 39.125 1.5 "/></g></g><g style="fill:#000000;fill-opacity:1;"><g transform="translate(55.886256, 192.23036)"><path style="stroke:none" d="M 23.75 -18.773438 C 24.054688 -18.773438 24.320312 -18.683594 24.546875 -18.503906 C 24.796875 -18.308594 24.921875 -18.023438 24.921875 -17.65625 C 24.921875 -17.539062 24.898438 -17.402344 24.859375 -17.234375 L 24.855469 -17.21875 L 19.042969 -0.390625 C 18.964844 -0.160156 18.824219 0.0195312 18.617188 0.148438 C 18.425781 0.269531 18.226562 0.328125 18.023438 0.328125 C 17.789062 0.328125 17.578125 0.273438 17.390625 0.167969 C 17.183594 0.0507812 17.027344 -0.128906 16.929688 -0.378906 L 12.039062 -12.480469 L 13.242188 -12.179688 L 8.449219 -0.375 C 8.347656 -0.125 8.191406 0.0546875 7.96875 0.171875 C 7.773438 0.277344 7.570312 0.328125 7.355469 0.328125 C 7.148438 0.328125 6.953125 0.265625 6.765625 0.140625 C 6.574219 0.0117188 6.4375 -0.167969 6.363281 -0.394531 L 0.554688 -17.207031 L 0.867188 -17.3125 L 0.558594 -17.199219 C 0.492188 -17.375 0.460938 -17.519531 0.460938 -17.628906 C 0.460938 -18.003906 0.601562 -18.292969 0.882812 -18.5 C 1.132812 -18.679688 1.390625 -18.773438 1.65625 -18.773438 C 1.894531 -18.773438 2.109375 -18.710938 2.300781 -18.589844 C 2.507812 -18.460938 2.652344 -18.28125 2.730469 -18.046875 L 8.144531 -2.257812 L 6.90625 -2.148438 L 11.675781 -14.046875 L 11.980469 -13.925781 L 11.667969 -14.027344 C 11.742188 -14.253906 11.875 -14.433594 12.0625 -14.570312 C 12.261719 -14.714844 12.488281 -14.777344 12.75 -14.75 L 12.714844 -14.425781 L 12.683594 -14.75 C 12.941406 -14.777344 13.171875 -14.714844 13.371094 -14.570312 C 13.546875 -14.441406 13.683594 -14.269531 13.777344 -14.058594 L 13.78125 -14.050781 L 18.425781 -2.382812 L 17.175781 -1.925781 L 22.652344 -18.050781 C 22.730469 -18.28125 22.871094 -18.460938 23.078125 -18.589844 C 23.269531 -18.710938 23.496094 -18.773438 23.75 -18.773438 Z M 23.75 -18.113281 C 23.621094 -18.113281 23.511719 -18.089844 23.425781 -18.035156 C 23.351562 -17.988281 23.300781 -17.921875 23.273438 -17.839844 L 18.019531 -2.363281 L 17.707031 -2.46875 L 17.597656 -2.777344 L 17.886719 -2.882812 L 17.996094 -2.574219 L 17.691406 -2.453125 L 13.171875 -13.804688 L 13.476562 -13.925781 L 13.179688 -13.792969 C 13.132812 -13.894531 13.066406 -13.980469 12.980469 -14.039062 C 12.917969 -14.085938 12.839844 -14.105469 12.75 -14.097656 L 12.714844 -14.09375 L 12.683594 -14.097656 C 12.59375 -14.105469 12.515625 -14.085938 12.449219 -14.039062 C 12.375 -13.984375 12.324219 -13.914062 12.292969 -13.820312 L 12.289062 -13.8125 L 7.714844 -2.398438 L 7.410156 -2.523438 L 7.378906 -2.847656 L 7.667969 -2.875 L 7.699219 -2.546875 L 7.386719 -2.441406 L 2.105469 -17.839844 C 2.078125 -17.921875 2.027344 -17.988281 1.953125 -18.035156 C 1.867188 -18.089844 1.765625 -18.113281 1.65625 -18.113281 C 1.535156 -18.113281 1.40625 -18.066406 1.269531 -17.96875 C 1.167969 -17.894531 1.117188 -17.78125 1.117188 -17.628906 C 1.117188 -17.597656 1.136719 -17.53125 1.175781 -17.429688 L 1.175781 -17.425781 L 6.984375 -0.601562 C 7.015625 -0.515625 7.0625 -0.449219 7.132812 -0.40625 C 7.207031 -0.355469 7.28125 -0.328125 7.355469 -0.328125 C 7.460938 -0.328125 7.5625 -0.355469 7.664062 -0.410156 C 7.742188 -0.449219 7.800781 -0.519531 7.839844 -0.621094 L 12.492188 -12.078125 L 12.796875 -11.953125 L 12.714844 -11.636719 L 12.503906 -11.6875 L 12.585938 -12.007812 L 12.890625 -12.128906 L 17.539062 -0.621094 C 17.582031 -0.519531 17.636719 -0.445312 17.710938 -0.40625 C 17.800781 -0.355469 17.90625 -0.328125 18.023438 -0.328125 C 18.101562 -0.328125 18.183594 -0.355469 18.269531 -0.410156 C 18.34375 -0.457031 18.394531 -0.519531 18.421875 -0.605469 L 24.230469 -17.421875 L 24.539062 -17.3125 L 24.21875 -17.394531 C 24.25 -17.507812 24.261719 -17.59375 24.261719 -17.65625 C 24.261719 -17.8125 24.222656 -17.921875 24.136719 -17.988281 C 24.03125 -18.074219 23.902344 -18.113281 23.75 -18.113281 Z M 23.75 -18.113281 "/></g></g><g style="fill:#000000;fill-opacity:1;"><g transform="translate(81.024949, 192.23036)"><path style="stroke:none" d="M 13.085938 -13.753906 C 13.40625 -13.753906 13.675781 -13.640625 13.886719 -13.414062 C 14.097656 -13.195312 14.199219 -12.925781 14.199219 -12.609375 L 14.199219 -0.789062 C 14.199219 -0.488281 14.089844 -0.226562 13.867188 -0.00390625 C 13.644531 0.21875 13.386719 0.328125 13.085938 0.328125 C 12.761719 0.328125 12.492188 0.214844 12.28125 -0.0117188 C 12.070312 -0.230469 11.96875 -0.492188 11.96875 -0.789062 L 11.96875 -4.125 L 13.070312 -4.640625 L 13.070312 -4.125 C 13.070312 -3.578125 12.921875 -3.027344 12.625 -2.472656 C 12.335938 -1.933594 11.941406 -1.429688 11.441406 -0.96875 C 10.941406 -0.503906 10.351562 -0.128906 9.679688 0.15625 C 9 0.445312 8.269531 0.589844 7.488281 0.589844 C 6.230469 0.589844 5.109375 0.265625 4.117188 -0.382812 C 3.128906 -1.027344 2.355469 -1.910156 1.792969 -3.03125 C 1.238281 -4.148438 0.957031 -5.394531 0.957031 -6.777344 C 0.957031 -8.199219 1.242188 -9.453125 1.808594 -10.542969 C 2.378906 -11.636719 3.152344 -12.496094 4.132812 -13.125 C 5.113281 -13.753906 6.222656 -14.070312 7.460938 -14.070312 C 8.257812 -14.070312 9.003906 -13.929688 9.699219 -13.652344 C 10.394531 -13.375 11 -12.992188 11.519531 -12.511719 C 12.042969 -12.027344 12.449219 -11.46875 12.738281 -10.84375 C 13.03125 -10.214844 13.175781 -9.558594 13.175781 -8.878906 L 13.175781 -8.242188 L 11.96875 -9.105469 L 11.96875 -12.609375 C 11.96875 -12.925781 12.070312 -13.195312 12.28125 -13.414062 C 12.492188 -13.640625 12.761719 -13.753906 13.085938 -13.753906 Z M 13.085938 -13.097656 C 12.949219 -13.097656 12.84375 -13.050781 12.757812 -12.964844 C 12.667969 -12.871094 12.625 -12.75 12.625 -12.609375 L 12.625 -9.273438 L 12.296875 -9.273438 L 12.488281 -9.542969 L 13.039062 -9.148438 L 12.847656 -8.878906 L 12.519531 -8.878906 C 12.519531 -9.460938 12.394531 -10.023438 12.140625 -10.566406 C 11.890625 -11.117188 11.53125 -11.601562 11.074219 -12.027344 C 10.613281 -12.457031 10.074219 -12.792969 9.453125 -13.042969 C 8.835938 -13.289062 8.171875 -13.414062 7.460938 -13.414062 C 6.351562 -13.414062 5.359375 -13.132812 4.484375 -12.570312 C 3.605469 -12.007812 2.910156 -11.230469 2.394531 -10.238281 C 1.875 -9.246094 1.617188 -8.089844 1.617188 -6.777344 C 1.617188 -5.5 1.871094 -4.347656 2.382812 -3.324219 C 2.890625 -2.308594 3.589844 -1.511719 4.476562 -0.933594 C 5.359375 -0.355469 6.363281 -0.0664062 7.488281 -0.0664062 C 8.179688 -0.0664062 8.824219 -0.191406 9.421875 -0.445312 C 10.027344 -0.703125 10.550781 -1.039062 10.996094 -1.449219 C 11.441406 -1.863281 11.792969 -2.308594 12.046875 -2.78125 C 12.292969 -3.242188 12.414062 -3.6875 12.414062 -4.125 L 12.742188 -4.125 L 12.882812 -3.828125 L 12.4375 -3.617188 L 12.296875 -3.914062 L 12.625 -3.914062 L 12.625 -0.789062 C 12.625 -0.664062 12.667969 -0.554688 12.757812 -0.460938 C 12.84375 -0.371094 12.949219 -0.328125 13.085938 -0.328125 C 13.203125 -0.328125 13.308594 -0.375 13.402344 -0.46875 C 13.496094 -0.5625 13.542969 -0.667969 13.542969 -0.789062 L 13.542969 -12.609375 C 13.542969 -12.75 13.5 -12.871094 13.410156 -12.964844 C 13.324219 -13.050781 13.21875 -13.097656 13.085938 -13.097656 Z M 7.621094 -1.535156 C 8.480469 -1.535156 9.242188 -1.757812 9.90625 -2.203125 C 10.574219 -2.652344 11.101562 -3.273438 11.488281 -4.070312 C 11.878906 -4.875 12.074219 -5.777344 12.074219 -6.777344 C 12.074219 -7.761719 11.878906 -8.640625 11.488281 -9.417969 C 11.101562 -10.1875 10.574219 -10.804688 9.902344 -11.261719 C 9.242188 -11.714844 8.480469 -11.941406 7.621094 -11.941406 C 6.773438 -11.941406 6.015625 -11.722656 5.339844 -11.285156 C 4.664062 -10.84375 4.132812 -10.238281 3.75 -9.46875 C 3.359375 -8.691406 3.164062 -7.796875 3.164062 -6.777344 C 3.164062 -5.777344 3.359375 -4.875 3.75 -4.070312 C 4.136719 -3.273438 4.664062 -2.652344 5.332031 -2.203125 C 5.996094 -1.757812 6.757812 -1.535156 7.621094 -1.535156 Z M 7.621094 -0.878906 C 6.625 -0.878906 5.738281 -1.140625 4.964844 -1.660156 C 4.199219 -2.171875 3.597656 -2.882812 3.160156 -3.785156 C 2.726562 -4.679688 2.507812 -5.675781 2.507812 -6.777344 C 2.507812 -7.898438 2.726562 -8.894531 3.160156 -9.761719 C 3.597656 -10.640625 4.207031 -11.332031 4.984375 -11.835938 C 5.765625 -12.34375 6.644531 -12.597656 7.621094 -12.597656 C 8.613281 -12.597656 9.5 -12.332031 10.273438 -11.804688 C 11.039062 -11.28125 11.640625 -10.585938 12.078125 -9.710938 C 12.511719 -8.839844 12.730469 -7.863281 12.730469 -6.777344 C 12.730469 -5.675781 12.511719 -4.679688 12.078125 -3.785156 C 11.640625 -2.882812 11.039062 -2.171875 10.273438 -1.660156 C 9.5 -1.140625 8.613281 -0.878906 7.621094 -0.878906 Z M 7.621094 -0.878906 "/></g></g><g style="fill:#000000;fill-opacity:1;"><g transform="translate(96.943527, 192.23036)"><path style="stroke:none" d="M 1.207031 -13.703125 L 7.332031 -13.703125 C 7.636719 -13.703125 7.890625 -13.59375 8.09375 -13.375 C 8.292969 -13.164062 8.394531 -12.90625 8.394531 -12.609375 C 8.394531 -12.328125 8.292969 -12.082031 8.089844 -11.878906 C 7.882812 -11.675781 7.632812 -11.574219 7.332031 -11.574219 L 1.207031 -11.574219 C 0.90625 -11.574219 0.652344 -11.679688 0.4375 -11.894531 C 0.226562 -12.105469 0.117188 -12.355469 0.117188 -12.636719 C 0.117188 -12.941406 0.226562 -13.195312 0.445312 -13.402344 C 0.65625 -13.601562 0.910156 -13.703125 1.207031 -13.703125 Z M 1.207031 -13.042969 C 1.085938 -13.042969 0.980469 -13.003906 0.894531 -12.921875 C 0.816406 -12.847656 0.773438 -12.753906 0.773438 -12.636719 C 0.773438 -12.535156 0.816406 -12.441406 0.902344 -12.355469 C 0.988281 -12.273438 1.089844 -12.230469 1.207031 -12.230469 L 7.332031 -12.230469 C 7.449219 -12.230469 7.546875 -12.269531 7.625 -12.34375 C 7.699219 -12.421875 7.738281 -12.507812 7.738281 -12.609375 C 7.738281 -12.734375 7.695312 -12.839844 7.617188 -12.925781 C 7.542969 -13.003906 7.445312 -13.042969 7.332031 -13.042969 Z M 3.914062 -17.40625 C 4.238281 -17.40625 4.503906 -17.292969 4.71875 -17.066406 C 4.925781 -16.84375 5.03125 -16.585938 5.03125 -16.289062 L 5.03125 -3.101562 C 5.03125 -2.664062 5.085938 -2.347656 5.191406 -2.152344 C 5.28125 -1.980469 5.394531 -1.867188 5.527344 -1.816406 C 5.699219 -1.753906 5.871094 -1.722656 6.042969 -1.722656 C 6.140625 -1.722656 6.230469 -1.734375 6.304688 -1.765625 C 6.457031 -1.824219 6.625 -1.851562 6.804688 -1.851562 C 7.058594 -1.851562 7.273438 -1.757812 7.453125 -1.5625 C 7.625 -1.378906 7.710938 -1.144531 7.710938 -0.867188 C 7.710938 -0.496094 7.515625 -0.195312 7.128906 0.03125 C 6.796875 0.230469 6.410156 0.328125 5.964844 0.328125 C 5.796875 0.328125 5.550781 0.316406 5.226562 0.289062 C 4.871094 0.257812 4.507812 0.152344 4.136719 -0.0351562 C 3.738281 -0.234375 3.414062 -0.574219 3.164062 -1.058594 C 2.917969 -1.523438 2.796875 -2.179688 2.796875 -3.019531 L 2.796875 -16.289062 C 2.796875 -16.585938 2.902344 -16.84375 3.109375 -17.066406 C 3.324219 -17.292969 3.59375 -17.40625 3.914062 -17.40625 Z M 3.914062 -16.75 C 3.78125 -16.75 3.671875 -16.703125 3.589844 -16.617188 C 3.5 -16.519531 3.453125 -16.414062 3.453125 -16.289062 L 3.453125 -3.019531 C 3.453125 -2.285156 3.550781 -1.734375 3.746094 -1.359375 C 3.933594 -1.003906 4.160156 -0.757812 4.429688 -0.621094 C 4.722656 -0.476562 5.007812 -0.390625 5.28125 -0.367188 C 5.589844 -0.339844 5.816406 -0.328125 5.964844 -0.328125 C 6.289062 -0.328125 6.566406 -0.394531 6.792969 -0.53125 C 6.96875 -0.636719 7.054688 -0.746094 7.054688 -0.867188 C 7.054688 -0.972656 7.027344 -1.058594 6.972656 -1.117188 C 6.921875 -1.167969 6.867188 -1.195312 6.804688 -1.195312 C 6.707031 -1.195312 6.617188 -1.179688 6.542969 -1.152344 C 6.390625 -1.09375 6.222656 -1.0625 6.042969 -1.0625 C 5.792969 -1.0625 5.542969 -1.109375 5.296875 -1.203125 C 5.007812 -1.3125 4.78125 -1.523438 4.609375 -1.839844 C 4.453125 -2.136719 4.375 -2.554688 4.375 -3.101562 L 4.375 -16.289062 C 4.375 -16.414062 4.328125 -16.519531 4.242188 -16.617188 C 4.15625 -16.703125 4.046875 -16.75 3.914062 -16.75 Z M 3.914062 -16.75 "/></g></g><g style="fill:#000000;fill-opacity:1;"><g transform="translate(105.71711, 192.23036)"><path style="stroke:none" d="M 8.144531 0.589844 C 6.738281 0.589844 5.496094 0.289062 4.410156 -0.316406 C 3.324219 -0.925781 2.476562 -1.773438 1.867188 -2.859375 C 1.261719 -3.945312 0.957031 -5.207031 0.957031 -6.648438 C 0.957031 -8.191406 1.265625 -9.515625 1.878906 -10.617188 C 2.496094 -11.71875 3.296875 -12.570312 4.28125 -13.167969 C 5.273438 -13.769531 6.324219 -14.070312 7.433594 -14.070312 C 8.246094 -14.070312 9.03125 -13.925781 9.796875 -13.640625 C 10.566406 -13.355469 11.25 -12.929688 11.851562 -12.363281 C 12.453125 -11.800781 12.933594 -11.113281 13.292969 -10.300781 C 13.652344 -9.492188 13.847656 -8.558594 13.886719 -7.5 L 13.886719 -7.480469 L 13.882812 -7.460938 C 13.859375 -7.167969 13.738281 -6.917969 13.519531 -6.710938 C 13.296875 -6.5 13.039062 -6.398438 12.742188 -6.398438 L 1.945312 -6.398438 L 1.480469 -8.472656 L 13.082031 -8.472656 L 11.574219 -7.078125 L 11.574219 -8.355469 L 11.902344 -8.355469 L 11.574219 -8.328125 C 11.511719 -9.085938 11.269531 -9.726562 10.855469 -10.253906 C 10.433594 -10.789062 9.921875 -11.195312 9.320312 -11.472656 C 8.714844 -11.75 8.089844 -11.886719 7.433594 -11.886719 C 6.949219 -11.886719 6.449219 -11.789062 5.9375 -11.59375 C 5.429688 -11.402344 4.96875 -11.097656 4.554688 -10.683594 C 4.140625 -10.269531 3.800781 -9.734375 3.535156 -9.085938 C 3.273438 -8.433594 3.140625 -7.65625 3.140625 -6.753906 C 3.140625 -5.769531 3.339844 -4.882812 3.734375 -4.085938 C 4.128906 -3.304688 4.695312 -2.683594 5.441406 -2.222656 C 6.183594 -1.765625 7.078125 -1.535156 8.117188 -1.535156 C 8.695312 -1.535156 9.207031 -1.617188 9.664062 -1.78125 C 10.121094 -1.945312 10.519531 -2.160156 10.859375 -2.425781 C 11.203125 -2.699219 11.492188 -2.980469 11.722656 -3.277344 L 11.742188 -3.304688 L 11.773438 -3.328125 C 12.027344 -3.535156 12.289062 -3.640625 12.558594 -3.640625 C 12.828125 -3.640625 13.0625 -3.535156 13.257812 -3.324219 C 13.449219 -3.121094 13.542969 -2.890625 13.542969 -2.628906 C 13.542969 -2.320312 13.421875 -2.054688 13.171875 -1.832031 L 12.953125 -2.074219 L 13.203125 -1.867188 C 12.652344 -1.203125 11.9375 -0.628906 11.0625 -0.144531 C 10.171875 0.34375 9.199219 0.589844 8.144531 0.589844 Z M 8.144531 -0.0664062 C 9.085938 -0.0664062 9.953125 -0.285156 10.746094 -0.722656 C 11.550781 -1.164062 12.203125 -1.6875 12.699219 -2.285156 L 12.714844 -2.304688 L 12.734375 -2.320312 C 12.835938 -2.414062 12.886719 -2.515625 12.886719 -2.628906 C 12.886719 -2.714844 12.851562 -2.796875 12.777344 -2.875 C 12.710938 -2.945312 12.640625 -2.980469 12.558594 -2.980469 C 12.445312 -2.980469 12.320312 -2.929688 12.1875 -2.820312 L 11.980469 -3.074219 L 12.238281 -2.871094 C 11.976562 -2.535156 11.652344 -2.214844 11.265625 -1.910156 C 10.867188 -1.597656 10.40625 -1.347656 9.882812 -1.160156 C 9.359375 -0.972656 8.769531 -0.878906 8.117188 -0.878906 C 6.953125 -0.878906 5.945312 -1.140625 5.09375 -1.664062 C 4.246094 -2.1875 3.597656 -2.898438 3.148438 -3.792969 C 2.703125 -4.679688 2.484375 -5.667969 2.484375 -6.753906 C 2.484375 -7.742188 2.632812 -8.601562 2.925781 -9.332031 C 3.222656 -10.066406 3.613281 -10.671875 4.089844 -11.148438 C 4.570312 -11.628906 5.105469 -11.980469 5.703125 -12.207031 C 6.292969 -12.433594 6.871094 -12.546875 7.433594 -12.546875 C 8.183594 -12.546875 8.902344 -12.386719 9.59375 -12.070312 C 10.292969 -11.75 10.882812 -11.28125 11.371094 -10.660156 C 11.867188 -10.03125 12.152344 -9.269531 12.230469 -8.382812 L 12.230469 -7.828125 L 11.902344 -7.828125 L 11.679688 -8.070312 L 12.019531 -8.386719 L 12.242188 -8.144531 L 12.242188 -7.816406 L 1.890625 -7.816406 L 1.890625 -8.144531 L 2.210938 -8.214844 L 2.527344 -6.796875 L 2.207031 -6.726562 L 2.207031 -7.054688 L 12.742188 -7.054688 C 12.867188 -7.054688 12.972656 -7.097656 13.070312 -7.1875 C 13.164062 -7.28125 13.21875 -7.386719 13.230469 -7.515625 L 13.558594 -7.488281 L 13.230469 -7.476562 C 13.195312 -8.449219 13.015625 -9.300781 12.691406 -10.035156 C 12.367188 -10.765625 11.9375 -11.382812 11.402344 -11.886719 C 10.863281 -12.390625 10.253906 -12.769531 9.566406 -13.027344 C 8.875 -13.285156 8.167969 -13.414062 7.433594 -13.414062 C 6.445312 -13.414062 5.507812 -13.144531 4.625 -12.605469 C 3.734375 -12.066406 3.011719 -11.296875 2.453125 -10.296875 C 1.894531 -9.296875 1.617188 -8.078125 1.617188 -6.648438 C 1.617188 -5.320312 1.890625 -4.164062 2.441406 -3.183594 C 2.988281 -2.203125 3.753906 -1.4375 4.730469 -0.890625 C 5.714844 -0.339844 6.851562 -0.0664062 8.144531 -0.0664062 Z M 8.144531 -0.0664062 "/></g></g><g style="fill:#000000;fill-opacity:1;"><g transform="translate(120.558687, 192.23036)"><path style="stroke:none" d="M 2.863281 0.328125 C 2.519531 0.328125 2.246094 0.214844 2.039062 -0.0195312 C 1.84375 -0.238281 1.746094 -0.496094 1.746094 -0.789062 L 1.746094 -12.558594 C 1.746094 -12.855469 1.851562 -13.113281 2.058594 -13.335938 C 2.273438 -13.5625 2.542969 -13.675781 2.863281 -13.675781 C 3.1875 -13.675781 3.453125 -13.5625 3.667969 -13.335938 C 3.875 -13.113281 3.980469 -12.855469 3.980469 -12.558594 L 3.980469 -8.347656 L 2.894531 -8.128906 L 2.929688 -8.566406 C 2.984375 -9.214844 3.148438 -9.855469 3.414062 -10.492188 C 3.683594 -11.128906 4.046875 -11.714844 4.507812 -12.246094 C 4.972656 -12.789062 5.523438 -13.222656 6.167969 -13.558594 C 6.820312 -13.898438 7.546875 -14.070312 8.355469 -14.070312 C 8.714844 -14.070312 9.066406 -13.996094 9.40625 -13.84375 C 9.835938 -13.65625 10.050781 -13.339844 10.050781 -12.898438 C 10.050781 -12.546875 9.949219 -12.269531 9.742188 -12.0625 C 9.539062 -11.859375 9.296875 -11.757812 9.011719 -11.757812 C 8.804688 -11.757812 8.585938 -11.8125 8.359375 -11.921875 C 8.21875 -11.988281 8.023438 -12.019531 7.777344 -12.019531 C 7.347656 -12.019531 6.910156 -11.890625 6.472656 -11.632812 C 6.015625 -11.363281 5.597656 -10.996094 5.21875 -10.539062 C 4.839844 -10.074219 4.535156 -9.554688 4.3125 -8.984375 C 4.089844 -8.417969 3.980469 -7.847656 3.980469 -7.277344 L 3.980469 -0.789062 C 3.980469 -0.488281 3.871094 -0.226562 3.648438 -0.00390625 C 3.425781 0.21875 3.164062 0.328125 2.863281 0.328125 Z M 2.863281 -0.328125 C 2.984375 -0.328125 3.089844 -0.375 3.183594 -0.46875 C 3.277344 -0.5625 3.324219 -0.667969 3.324219 -0.789062 L 3.324219 -7.277344 C 3.324219 -7.933594 3.449219 -8.582031 3.699219 -9.222656 C 3.949219 -9.859375 4.285156 -10.4375 4.710938 -10.953125 C 5.140625 -11.472656 5.613281 -11.890625 6.140625 -12.199219 C 6.679688 -12.515625 7.226562 -12.675781 7.777344 -12.675781 C 8.125 -12.675781 8.410156 -12.621094 8.640625 -12.511719 C 8.78125 -12.445312 8.902344 -12.414062 9.011719 -12.414062 C 9.113281 -12.414062 9.203125 -12.453125 9.277344 -12.527344 C 9.355469 -12.605469 9.390625 -12.726562 9.390625 -12.898438 C 9.390625 -13.054688 9.308594 -13.167969 9.140625 -13.242188 C 8.886719 -13.355469 8.625 -13.414062 8.355469 -13.414062 C 7.65625 -13.414062 7.027344 -13.265625 6.46875 -12.976562 C 5.902344 -12.679688 5.414062 -12.292969 5.003906 -11.820312 C 4.589844 -11.335938 4.261719 -10.808594 4.019531 -10.238281 C 3.78125 -9.664062 3.632812 -9.089844 3.585938 -8.511719 L 3.257812 -8.539062 L 3.195312 -8.859375 L 3.585938 -8.941406 L 3.652344 -8.617188 L 3.324219 -8.617188 L 3.324219 -12.558594 C 3.324219 -12.683594 3.277344 -12.789062 3.191406 -12.882812 C 3.105469 -12.972656 2.996094 -13.019531 2.863281 -13.019531 C 2.730469 -13.019531 2.621094 -12.972656 2.539062 -12.882812 C 2.449219 -12.789062 2.402344 -12.683594 2.402344 -12.558594 L 2.402344 -0.789062 C 2.402344 -0.660156 2.445312 -0.550781 2.53125 -0.453125 C 2.605469 -0.371094 2.71875 -0.328125 2.863281 -0.328125 Z M 2.863281 -0.328125 "/></g></g><g style="fill:#000000;fill-opacity:1;"><g transform="translate(131.985634, 192.23036)"><path style="stroke:none" d="M 18.023438 -14.042969 C 18.296875 -14.042969 18.546875 -13.945312 18.773438 -13.753906 C 19.019531 -13.550781 19.140625 -13.273438 19.140625 -12.925781 C 19.140625 -12.847656 19.128906 -12.757812 19.105469 -12.664062 C 19.082031 -12.570312 19.054688 -12.496094 19.027344 -12.4375 L 18.734375 -12.585938 L 19.042969 -12.480469 L 14.992188 -0.378906 L 14.988281 -0.367188 C 14.890625 -0.148438 14.742188 0.0273438 14.535156 0.15625 C 14.320312 0.296875 14.097656 0.351562 13.863281 0.328125 L 13.898438 0 L 13.878906 0.328125 C 13.4375 0.304688 13.109375 0.078125 12.894531 -0.351562 L 12.890625 -0.363281 L 8.933594 -9.679688 L 10.398438 -9.355469 L 6.976562 -0.375 L 6.972656 -0.367188 C 6.777344 0.0703125 6.449219 0.304688 5.980469 0.328125 L 5.964844 0 L 6 0.328125 C 5.769531 0.351562 5.542969 0.296875 5.320312 0.160156 C 5.09375 0.0234375 4.941406 -0.160156 4.863281 -0.394531 L 0.714844 -12.476562 L 1.023438 -12.585938 L 0.722656 -12.457031 C 0.652344 -12.621094 0.617188 -12.777344 0.617188 -12.925781 C 0.617188 -13.246094 0.722656 -13.511719 0.9375 -13.722656 C 1.148438 -13.9375 1.425781 -14.042969 1.761719 -14.042969 C 1.984375 -14.042969 2.191406 -13.980469 2.375 -13.855469 C 2.574219 -13.726562 2.710938 -13.535156 2.785156 -13.285156 L 2.46875 -13.1875 L 2.78125 -13.292969 L 6.664062 -1.644531 L 5.226562 -1.71875 L 8.785156 -10.683594 C 8.984375 -11.152344 9.332031 -11.390625 9.824219 -11.390625 C 10.070312 -11.390625 10.285156 -11.324219 10.464844 -11.195312 C 10.636719 -11.074219 10.769531 -10.90625 10.863281 -10.695312 L 14.644531 -1.691406 L 13.121094 -1.621094 L 16.976562 -13.292969 L 17.289062 -13.1875 L 16.972656 -13.285156 C 17.046875 -13.53125 17.175781 -13.71875 17.359375 -13.851562 C 17.539062 -13.980469 17.761719 -14.042969 18.023438 -14.042969 Z M 18.023438 -13.386719 C 17.902344 -13.386719 17.808594 -13.363281 17.742188 -13.316406 C 17.679688 -13.273438 17.632812 -13.199219 17.601562 -13.09375 L 17.601562 -13.089844 L 13.894531 -1.867188 L 13.582031 -1.96875 L 13.566406 -2.296875 L 14.144531 -2.324219 L 14.160156 -1.996094 L 13.859375 -1.871094 L 10.261719 -10.429688 C 10.214844 -10.53125 10.15625 -10.609375 10.082031 -10.664062 C 10.015625 -10.710938 9.929688 -10.734375 9.824219 -10.734375 C 9.621094 -10.734375 9.476562 -10.636719 9.394531 -10.441406 L 6.007812 -1.902344 L 5.703125 -2.023438 L 5.71875 -2.351562 L 6.21875 -2.324219 L 6.199219 -1.996094 L 5.890625 -1.894531 L 2.15625 -13.089844 L 2.15625 -13.09375 C 2.125 -13.195312 2.078125 -13.265625 2.011719 -13.308594 C 1.933594 -13.359375 1.851562 -13.386719 1.761719 -13.386719 C 1.605469 -13.386719 1.484375 -13.34375 1.402344 -13.257812 C 1.316406 -13.175781 1.273438 -13.0625 1.273438 -12.925781 C 1.273438 -12.867188 1.292969 -12.796875 1.328125 -12.714844 L 1.332031 -12.703125 L 5.488281 -0.601562 C 5.515625 -0.519531 5.574219 -0.453125 5.664062 -0.398438 C 5.757812 -0.339844 5.84375 -0.316406 5.925781 -0.328125 L 5.945312 -0.328125 C 6.144531 -0.339844 6.289062 -0.441406 6.375 -0.632812 L 6.671875 -0.5 L 6.367188 -0.617188 L 9.652344 -9.234375 L 9.957031 -9.117188 L 9.886719 -8.796875 L 9.414062 -8.902344 L 9.484375 -9.222656 L 9.785156 -9.351562 L 13.492188 -0.628906 L 13.1875 -0.5 L 13.484375 -0.644531 C 13.582031 -0.445312 13.726562 -0.339844 13.917969 -0.328125 L 13.933594 -0.328125 C 14.015625 -0.316406 14.097656 -0.339844 14.179688 -0.394531 C 14.273438 -0.453125 14.34375 -0.535156 14.386719 -0.632812 L 14.6875 -0.5 L 14.375 -0.601562 L 18.429688 -12.710938 L 18.4375 -12.730469 C 18.445312 -12.746094 18.453125 -12.773438 18.464844 -12.820312 C 18.476562 -12.867188 18.484375 -12.902344 18.484375 -12.925781 C 18.484375 -13.070312 18.4375 -13.179688 18.351562 -13.253906 C 18.246094 -13.339844 18.136719 -13.386719 18.023438 -13.386719 Z M 18.023438 -13.386719 "/></g></g><g style="fill:#000000;fill-opacity:1;"><g transform="translate(151.73938, 192.23036)"><path style="stroke:none" d="M 8.144531 0.589844 C 6.738281 0.589844 5.496094 0.289062 4.410156 -0.316406 C 3.324219 -0.925781 2.476562 -1.773438 1.867188 -2.859375 C 1.261719 -3.945312 0.957031 -5.207031 0.957031 -6.648438 C 0.957031 -8.191406 1.265625 -9.515625 1.878906 -10.617188 C 2.496094 -11.71875 3.296875 -12.570312 4.28125 -13.167969 C 5.273438 -13.769531 6.324219 -14.070312 7.433594 -14.070312 C 8.246094 -14.070312 9.03125 -13.925781 9.796875 -13.640625 C 10.566406 -13.355469 11.25 -12.929688 11.851562 -12.363281 C 12.453125 -11.800781 12.933594 -11.113281 13.292969 -10.300781 C 13.652344 -9.492188 13.847656 -8.558594 13.886719 -7.5 L 13.886719 -7.480469 L 13.882812 -7.460938 C 13.859375 -7.167969 13.738281 -6.917969 13.519531 -6.710938 C 13.296875 -6.5 13.039062 -6.398438 12.742188 -6.398438 L 1.945312 -6.398438 L 1.480469 -8.472656 L 13.082031 -8.472656 L 11.574219 -7.078125 L 11.574219 -8.355469 L 11.902344 -8.355469 L 11.574219 -8.328125 C 11.511719 -9.085938 11.269531 -9.726562 10.855469 -10.253906 C 10.433594 -10.789062 9.921875 -11.195312 9.320312 -11.472656 C 8.714844 -11.75 8.089844 -11.886719 7.433594 -11.886719 C 6.949219 -11.886719 6.449219 -11.789062 5.9375 -11.59375 C 5.429688 -11.402344 4.96875 -11.097656 4.554688 -10.683594 C 4.140625 -10.269531 3.800781 -9.734375 3.535156 -9.085938 C 3.273438 -8.433594 3.140625 -7.65625 3.140625 -6.753906 C 3.140625 -5.769531 3.339844 -4.882812 3.734375 -4.085938 C 4.128906 -3.304688 4.695312 -2.683594 5.441406 -2.222656 C 6.183594 -1.765625 7.078125 -1.535156 8.117188 -1.535156 C 8.695312 -1.535156 9.207031 -1.617188 9.664062 -1.78125 C 10.121094 -1.945312 10.519531 -2.160156 10.859375 -2.425781 C 11.203125 -2.699219 11.492188 -2.980469 11.722656 -3.277344 L 11.742188 -3.304688 L 11.773438 -3.328125 C 12.027344 -3.535156 12.289062 -3.640625 12.558594 -3.640625 C 12.828125 -3.640625 13.0625 -3.535156 13.257812 -3.324219 C 13.449219 -3.121094 13.542969 -2.890625 13.542969 -2.628906 C 13.542969 -2.320312 13.421875 -2.054688 13.171875 -1.832031 L 12.953125 -2.074219 L 13.203125 -1.867188 C 12.652344 -1.203125 11.9375 -0.628906 11.0625 -0.144531 C 10.171875 0.34375 9.199219 0.589844 8.144531 0.589844 Z M 8.144531 -0.0664062 C 9.085938 -0.0664062 9.953125 -0.285156 10.746094 -0.722656 C 11.550781 -1.164062 12.203125 -1.6875 12.699219 -2.285156 L 12.714844 -2.304688 L 12.734375 -2.320312 C 12.835938 -2.414062 12.886719 -2.515625 12.886719 -2.628906 C 12.886719 -2.714844 12.851562 -2.796875 12.777344 -2.875 C 12.710938 -2.945312 12.640625 -2.980469 12.558594 -2.980469 C 12.445312 -2.980469 12.320312 -2.929688 12.1875 -2.820312 L 11.980469 -3.074219 L 12.238281 -2.871094 C 11.976562 -2.535156 11.652344 -2.214844 11.265625 -1.910156 C 10.867188 -1.597656 10.40625 -1.347656 9.882812 -1.160156 C 9.359375 -0.972656 8.769531 -0.878906 8.117188 -0.878906 C 6.953125 -0.878906 5.945312 -1.140625 5.09375 -1.664062 C 4.246094 -2.1875 3.597656 -2.898438 3.148438 -3.792969 C 2.703125 -4.679688 2.484375 -5.667969 2.484375 -6.753906 C 2.484375 -7.742188 2.632812 -8.601562 2.925781 -9.332031 C 3.222656 -10.066406 3.613281 -10.671875 4.089844 -11.148438 C 4.570312 -11.628906 5.105469 -11.980469 5.703125 -12.207031 C 6.292969 -12.433594 6.871094 -12.546875 7.433594 -12.546875 C 8.183594 -12.546875 8.902344 -12.386719 9.59375 -12.070312 C 10.292969 -11.75 10.882812 -11.28125 11.371094 -10.660156 C 11.867188 -10.03125 12.152344 -9.269531 12.230469 -8.382812 L 12.230469 -7.828125 L 11.902344 -7.828125 L 11.679688 -8.070312 L 12.019531 -8.386719 L 12.242188 -8.144531 L 12.242188 -7.816406 L 1.890625 -7.816406 L 1.890625 -8.144531 L 2.210938 -8.214844 L 2.527344 -6.796875 L 2.207031 -6.726562 L 2.207031 -7.054688 L 12.742188 -7.054688 C 12.867188 -7.054688 12.972656 -7.097656 13.070312 -7.1875 C 13.164062 -7.28125 13.21875 -7.386719 13.230469 -7.515625 L 13.558594 -7.488281 L 13.230469 -7.476562 C 13.195312 -8.449219 13.015625 -9.300781 12.691406 -10.035156 C 12.367188 -10.765625 11.9375 -11.382812 11.402344 -11.886719 C 10.863281 -12.390625 10.253906 -12.769531 9.566406 -13.027344 C 8.875 -13.285156 8.167969 -13.414062 7.433594 -13.414062 C 6.445312 -13.414062 5.507812 -13.144531 4.625 -12.605469 C 3.734375 -12.066406 3.011719 -11.296875 2.453125 -10.296875 C 1.894531 -9.296875 1.617188 -8.078125 1.617188 -6.648438 C 1.617188 -5.320312 1.890625 -4.164062 2.441406 -3.183594 C 2.988281 -2.203125 3.753906 -1.4375 4.730469 -0.890625 C 5.714844 -0.339844 6.851562 -0.0664062 8.144531 -0.0664062 Z M 8.144531 -0.0664062 "/></g></g><g style="fill:#000000;fill-opacity:1;"><g transform="translate(166.686053, 192.23036)"><path style="stroke:none" d="M 13.085938 -13.753906 C 13.40625 -13.753906 13.675781 -13.640625 13.886719 -13.414062 C 14.097656 -13.195312 14.199219 -12.925781 14.199219 -12.609375 L 14.199219 -0.789062 C 14.199219 -0.488281 14.089844 -0.226562 13.867188 -0.00390625 C 13.644531 0.21875 13.386719 0.328125 13.085938 0.328125 C 12.761719 0.328125 12.492188 0.214844 12.28125 -0.0117188 C 12.070312 -0.230469 11.96875 -0.492188 11.96875 -0.789062 L 11.96875 -4.125 L 13.070312 -4.640625 L 13.070312 -4.125 C 13.070312 -3.578125 12.921875 -3.027344 12.625 -2.472656 C 12.335938 -1.933594 11.941406 -1.429688 11.441406 -0.96875 C 10.941406 -0.503906 10.351562 -0.128906 9.679688 0.15625 C 9 0.445312 8.269531 0.589844 7.488281 0.589844 C 6.230469 0.589844 5.109375 0.265625 4.117188 -0.382812 C 3.128906 -1.027344 2.355469 -1.910156 1.792969 -3.03125 C 1.238281 -4.148438 0.957031 -5.394531 0.957031 -6.777344 C 0.957031 -8.199219 1.242188 -9.453125 1.808594 -10.542969 C 2.378906 -11.636719 3.152344 -12.496094 4.132812 -13.125 C 5.113281 -13.753906 6.222656 -14.070312 7.460938 -14.070312 C 8.257812 -14.070312 9.003906 -13.929688 9.699219 -13.652344 C 10.394531 -13.375 11 -12.992188 11.519531 -12.511719 C 12.042969 -12.027344 12.449219 -11.46875 12.738281 -10.84375 C 13.03125 -10.214844 13.175781 -9.558594 13.175781 -8.878906 L 13.175781 -8.242188 L 11.96875 -9.105469 L 11.96875 -12.609375 C 11.96875 -12.925781 12.070312 -13.195312 12.28125 -13.414062 C 12.492188 -13.640625 12.761719 -13.753906 13.085938 -13.753906 Z M 13.085938 -13.097656 C 12.949219 -13.097656 12.84375 -13.050781 12.757812 -12.964844 C 12.667969 -12.871094 12.625 -12.75 12.625 -12.609375 L 12.625 -9.273438 L 12.296875 -9.273438 L 12.488281 -9.542969 L 13.039062 -9.148438 L 12.847656 -8.878906 L 12.519531 -8.878906 C 12.519531 -9.460938 12.394531 -10.023438 12.140625 -10.566406 C 11.890625 -11.117188 11.53125 -11.601562 11.074219 -12.027344 C 10.613281 -12.457031 10.074219 -12.792969 9.453125 -13.042969 C 8.835938 -13.289062 8.171875 -13.414062 7.460938 -13.414062 C 6.351562 -13.414062 5.359375 -13.132812 4.484375 -12.570312 C 3.605469 -12.007812 2.910156 -11.230469 2.394531 -10.238281 C 1.875 -9.246094 1.617188 -8.089844 1.617188 -6.777344 C 1.617188 -5.5 1.871094 -4.347656 2.382812 -3.324219 C 2.890625 -2.308594 3.589844 -1.511719 4.476562 -0.933594 C 5.359375 -0.355469 6.363281 -0.0664062 7.488281 -0.0664062 C 8.179688 -0.0664062 8.824219 -0.191406 9.421875 -0.445312 C 10.027344 -0.703125 10.550781 -1.039062 10.996094 -1.449219 C 11.441406 -1.863281 11.792969 -2.308594 12.046875 -2.78125 C 12.292969 -3.242188 12.414062 -3.6875 12.414062 -4.125 L 12.742188 -4.125 L 12.882812 -3.828125 L 12.4375 -3.617188 L 12.296875 -3.914062 L 12.625 -3.914062 L 12.625 -0.789062 C 12.625 -0.664062 12.667969 -0.554688 12.757812 -0.460938 C 12.84375 -0.371094 12.949219 -0.328125 13.085938 -0.328125 C 13.203125 -0.328125 13.308594 -0.375 13.402344 -0.46875 C 13.496094 -0.5625 13.542969 -0.667969 13.542969 -0.789062 L 13.542969 -12.609375 C 13.542969 -12.75 13.5 -12.871094 13.410156 -12.964844 C 13.324219 -13.050781 13.21875 -13.097656 13.085938 -13.097656 Z M 7.621094 -1.535156 C 8.480469 -1.535156 9.242188 -1.757812 9.90625 -2.203125 C 10.574219 -2.652344 11.101562 -3.273438 11.488281 -4.070312 C 11.878906 -4.875 12.074219 -5.777344 12.074219 -6.777344 C 12.074219 -7.761719 11.878906 -8.640625 11.488281 -9.417969 C 11.101562 -10.1875 10.574219 -10.804688 9.902344 -11.261719 C 9.242188 -11.714844 8.480469 -11.941406 7.621094 -11.941406 C 6.773438 -11.941406 6.015625 -11.722656 5.339844 -11.285156 C 4.664062 -10.84375 4.132812 -10.238281 3.75 -9.46875 C 3.359375 -8.691406 3.164062 -7.796875 3.164062 -6.777344 C 3.164062 -5.777344 3.359375 -4.875 3.75 -4.070312 C 4.136719 -3.273438 4.664062 -2.652344 5.332031 -2.203125 C 5.996094 -1.757812 6.757812 -1.535156 7.621094 -1.535156 Z M 7.621094 -0.878906 C 6.625 -0.878906 5.738281 -1.140625 4.964844 -1.660156 C 4.199219 -2.171875 3.597656 -2.882812 3.160156 -3.785156 C 2.726562 -4.679688 2.507812 -5.675781 2.507812 -6.777344 C 2.507812 -7.898438 2.726562 -8.894531 3.160156 -9.761719 C 3.597656 -10.640625 4.207031 -11.332031 4.984375 -11.835938 C 5.765625 -12.34375 6.644531 -12.597656 7.621094 -12.597656 C 8.613281 -12.597656 9.5 -12.332031 10.273438 -11.804688 C 11.039062 -11.28125 11.640625 -10.585938 12.078125 -9.710938 C 12.511719 -8.839844 12.730469 -7.863281 12.730469 -6.777344 C 12.730469 -5.675781 12.511719 -4.679688 12.078125 -3.785156 C 11.640625 -2.882812 11.039062 -2.171875 10.273438 -1.660156 C 9.5 -1.140625 8.613281 -0.878906 7.621094 -0.878906 Z M 7.621094 -0.878906 "/></g></g><g style="fill:#000000;fill-opacity:1;"><g transform="translate(182.604631, 192.23036)"><path style="stroke:none" d="M 2.863281 0.328125 C 2.519531 0.328125 2.246094 0.214844 2.039062 -0.0195312 C 1.84375 -0.238281 1.746094 -0.496094 1.746094 -0.789062 L 1.746094 -12.558594 C 1.746094 -12.855469 1.851562 -13.113281 2.058594 -13.335938 C 2.273438 -13.5625 2.542969 -13.675781 2.863281 -13.675781 C 3.1875 -13.675781 3.453125 -13.5625 3.667969 -13.335938 C 3.875 -13.113281 3.980469 -12.855469 3.980469 -12.558594 L 3.980469 -8.347656 L 2.894531 -8.128906 L 2.929688 -8.566406 C 2.984375 -9.214844 3.148438 -9.855469 3.414062 -10.492188 C 3.683594 -11.128906 4.046875 -11.714844 4.507812 -12.246094 C 4.972656 -12.789062 5.523438 -13.222656 6.167969 -13.558594 C 6.820312 -13.898438 7.546875 -14.070312 8.355469 -14.070312 C 8.714844 -14.070312 9.066406 -13.996094 9.40625 -13.84375 C 9.835938 -13.65625 10.050781 -13.339844 10.050781 -12.898438 C 10.050781 -12.546875 9.949219 -12.269531 9.742188 -12.0625 C 9.539062 -11.859375 9.296875 -11.757812 9.011719 -11.757812 C 8.804688 -11.757812 8.585938 -11.8125 8.359375 -11.921875 C 8.21875 -11.988281 8.023438 -12.019531 7.777344 -12.019531 C 7.347656 -12.019531 6.910156 -11.890625 6.472656 -11.632812 C 6.015625 -11.363281 5.597656 -10.996094 5.21875 -10.539062 C 4.839844 -10.074219 4.535156 -9.554688 4.3125 -8.984375 C 4.089844 -8.417969 3.980469 -7.847656 3.980469 -7.277344 L 3.980469 -0.789062 C 3.980469 -0.488281 3.871094 -0.226562 3.648438 -0.00390625 C 3.425781 0.21875 3.164062 0.328125 2.863281 0.328125 Z M 2.863281 -0.328125 C 2.984375 -0.328125 3.089844 -0.375 3.183594 -0.46875 C 3.277344 -0.5625 3.324219 -0.667969 3.324219 -0.789062 L 3.324219 -7.277344 C 3.324219 -7.933594 3.449219 -8.582031 3.699219 -9.222656 C 3.949219 -9.859375 4.285156 -10.4375 4.710938 -10.953125 C 5.140625 -11.472656 5.613281 -11.890625 6.140625 -12.199219 C 6.679688 -12.515625 7.226562 -12.675781 7.777344 -12.675781 C 8.125 -12.675781 8.410156 -12.621094 8.640625 -12.511719 C 8.78125 -12.445312 8.902344 -12.414062 9.011719 -12.414062 C 9.113281 -12.414062 9.203125 -12.453125 9.277344 -12.527344 C 9.355469 -12.605469 9.390625 -12.726562 9.390625 -12.898438 C 9.390625 -13.054688 9.308594 -13.167969 9.140625 -13.242188 C 8.886719 -13.355469 8.625 -13.414062 8.355469 -13.414062 C 7.65625 -13.414062 7.027344 -13.265625 6.46875 -12.976562 C 5.902344 -12.679688 5.414062 -12.292969 5.003906 -11.820312 C 4.589844 -11.335938 4.261719 -10.808594 4.019531 -10.238281 C 3.78125 -9.664062 3.632812 -9.089844 3.585938 -8.511719 L 3.257812 -8.539062 L 3.195312 -8.859375 L 3.585938 -8.941406 L 3.652344 -8.617188 L 3.324219 -8.617188 L 3.324219 -12.558594 C 3.324219 -12.683594 3.277344 -12.789062 3.191406 -12.882812 C 3.105469 -12.972656 2.996094 -13.019531 2.863281 -13.019531 C 2.730469 -13.019531 2.621094 -12.972656 2.539062 -12.882812 C 2.449219 -12.789062 2.402344 -12.683594 2.402344 -12.558594 L 2.402344 -0.789062 C 2.402344 -0.660156 2.445312 -0.550781 2.53125 -0.453125 C 2.605469 -0.371094 2.71875 -0.328125 2.863281 -0.328125 Z M 2.863281 -0.328125 "/></g></g><g style="fill:#ffffff;fill-opacity:1;"><g transform="translate(55.886256, 192.23036)"><path style="stroke:none" d="M 23.75 -18.4375 C 23.96875 -18.4375 24.160156 -18.367188 24.328125 -18.234375 C 24.492188 -18.109375 24.578125 -17.914062 24.578125 -17.65625 C 24.578125 -17.5625 24.5625 -17.445312 24.53125 -17.3125 L 18.734375 -0.5 C 18.679688 -0.34375 18.582031 -0.21875 18.4375 -0.125 C 18.300781 -0.0390625 18.160156 0 18.015625 0 C 17.835938 0 17.675781 -0.0351562 17.53125 -0.109375 C 17.394531 -0.191406 17.296875 -0.320312 17.234375 -0.5 L 12.578125 -12 L 12.796875 -11.953125 L 8.140625 -0.5 C 8.066406 -0.320312 7.957031 -0.191406 7.8125 -0.109375 C 7.664062 -0.0351562 7.515625 0 7.359375 0 C 7.210938 0 7.070312 -0.0390625 6.9375 -0.125 C 6.8125 -0.21875 6.722656 -0.34375 6.671875 -0.5 L 0.859375 -17.3125 C 0.804688 -17.445312 0.78125 -17.550781 0.78125 -17.625 C 0.78125 -17.882812 0.875 -18.082031 1.0625 -18.21875 C 1.257812 -18.363281 1.457031 -18.4375 1.65625 -18.4375 C 1.832031 -18.4375 1.988281 -18.390625 2.125 -18.296875 C 2.269531 -18.210938 2.367188 -18.09375 2.421875 -17.9375 L 7.703125 -2.546875 L 7.40625 -2.515625 L 11.984375 -13.921875 C 12.035156 -14.078125 12.125 -14.203125 12.25 -14.296875 C 12.382812 -14.398438 12.539062 -14.441406 12.71875 -14.421875 C 12.882812 -14.441406 13.035156 -14.398438 13.171875 -14.296875 C 13.304688 -14.203125 13.40625 -14.078125 13.46875 -13.921875 L 17.984375 -2.578125 L 17.703125 -2.46875 L 22.953125 -17.9375 C 23.003906 -18.09375 23.097656 -18.210938 23.234375 -18.296875 C 23.378906 -18.390625 23.550781 -18.4375 23.75 -18.4375 Z M 23.75 -18.4375 "/></g></g><g style="fill:#ffffff;fill-opacity:1;"><g transform="translate(81.024949, 192.23036)"><path style="stroke:none" d="M 13.078125 -13.421875 C 13.304688 -13.421875 13.492188 -13.34375 13.640625 -13.1875 C 13.796875 -13.03125 13.875 -12.835938 13.875 -12.609375 L 13.875 -0.78125 C 13.875 -0.570312 13.789062 -0.390625 13.625 -0.234375 C 13.46875 -0.078125 13.285156 0 13.078125 0 C 12.847656 0 12.660156 -0.078125 12.515625 -0.234375 C 12.367188 -0.390625 12.296875 -0.570312 12.296875 -0.78125 L 12.296875 -3.90625 L 12.734375 -4.125 C 12.734375 -3.632812 12.597656 -3.132812 12.328125 -2.625 C 12.054688 -2.113281 11.679688 -1.640625 11.203125 -1.203125 C 10.734375 -0.765625 10.179688 -0.410156 9.546875 -0.140625 C 8.910156 0.128906 8.222656 0.265625 7.484375 0.265625 C 6.296875 0.265625 5.234375 -0.0390625 4.296875 -0.65625 C 3.359375 -1.269531 2.617188 -2.109375 2.078125 -3.171875 C 1.546875 -4.242188 1.28125 -5.445312 1.28125 -6.78125 C 1.28125 -8.144531 1.550781 -9.347656 2.09375 -10.390625 C 2.644531 -11.429688 3.382812 -12.25 4.3125 -12.84375 C 5.238281 -13.4375 6.285156 -13.734375 7.453125 -13.734375 C 8.210938 -13.734375 8.921875 -13.601562 9.578125 -13.34375 C 10.234375 -13.082031 10.804688 -12.722656 11.296875 -12.265625 C 11.785156 -11.804688 12.164062 -11.285156 12.4375 -10.703125 C 12.707031 -10.117188 12.84375 -9.507812 12.84375 -8.875 L 12.296875 -9.265625 L 12.296875 -12.609375 C 12.296875 -12.835938 12.367188 -13.03125 12.515625 -13.1875 C 12.660156 -13.34375 12.847656 -13.421875 13.078125 -13.421875 Z M 7.609375 -1.203125 C 8.546875 -1.203125 9.367188 -1.441406 10.078125 -1.921875 C 10.796875 -2.410156 11.359375 -3.078125 11.765625 -3.921875 C 12.179688 -4.773438 12.390625 -5.726562 12.390625 -6.78125 C 12.390625 -7.8125 12.179688 -8.738281 11.765625 -9.5625 C 11.359375 -10.382812 10.796875 -11.039062 10.078125 -11.53125 C 9.367188 -12.019531 8.546875 -12.265625 7.609375 -12.265625 C 6.703125 -12.265625 5.882812 -12.023438 5.15625 -11.546875 C 4.4375 -11.078125 3.867188 -10.429688 3.453125 -9.609375 C 3.046875 -8.785156 2.84375 -7.84375 2.84375 -6.78125 C 2.84375 -5.726562 3.046875 -4.773438 3.453125 -3.921875 C 3.867188 -3.078125 4.429688 -2.410156 5.140625 -1.921875 C 5.859375 -1.441406 6.679688 -1.203125 7.609375 -1.203125 Z M 7.609375 -1.203125 "/></g></g><g style="fill:#ffffff;fill-opacity:1;"><g transform="translate(96.943527, 192.23036)"><path style="stroke:none" d="M 1.203125 -13.375 L 7.328125 -13.375 C 7.535156 -13.375 7.707031 -13.296875 7.84375 -13.140625 C 7.988281 -12.992188 8.0625 -12.816406 8.0625 -12.609375 C 8.0625 -12.410156 7.988281 -12.238281 7.84375 -12.09375 C 7.707031 -11.957031 7.535156 -11.890625 7.328125 -11.890625 L 1.203125 -11.890625 C 0.992188 -11.890625 0.816406 -11.960938 0.671875 -12.109375 C 0.523438 -12.265625 0.453125 -12.441406 0.453125 -12.640625 C 0.453125 -12.847656 0.523438 -13.019531 0.671875 -13.15625 C 0.816406 -13.300781 0.992188 -13.375 1.203125 -13.375 Z M 3.90625 -17.078125 C 4.132812 -17.078125 4.320312 -16.992188 4.46875 -16.828125 C 4.625 -16.671875 4.703125 -16.488281 4.703125 -16.28125 L 4.703125 -3.09375 C 4.703125 -2.601562 4.765625 -2.234375 4.890625 -1.984375 C 5.023438 -1.742188 5.195312 -1.582031 5.40625 -1.5 C 5.613281 -1.425781 5.828125 -1.390625 6.046875 -1.390625 C 6.179688 -1.390625 6.304688 -1.410156 6.421875 -1.453125 C 6.535156 -1.492188 6.660156 -1.515625 6.796875 -1.515625 C 6.960938 -1.515625 7.097656 -1.453125 7.203125 -1.328125 C 7.316406 -1.210938 7.375 -1.054688 7.375 -0.859375 C 7.375 -0.617188 7.234375 -0.414062 6.953125 -0.25 C 6.679688 -0.0820312 6.351562 0 5.96875 0 C 5.800781 0 5.5625 -0.0078125 5.25 -0.03125 C 4.9375 -0.0625 4.613281 -0.160156 4.28125 -0.328125 C 3.945312 -0.492188 3.671875 -0.785156 3.453125 -1.203125 C 3.234375 -1.628906 3.125 -2.234375 3.125 -3.015625 L 3.125 -16.28125 C 3.125 -16.488281 3.195312 -16.671875 3.34375 -16.828125 C 3.5 -16.992188 3.6875 -17.078125 3.90625 -17.078125 Z M 3.90625 -17.078125 "/></g></g><g style="fill:#ffffff;fill-opacity:1;"><g transform="translate(105.71711, 192.23036)"><path style="stroke:none" d="M 8.140625 0.265625 C 6.796875 0.265625 5.601562 -0.0195312 4.5625 -0.59375 C 3.53125 -1.175781 2.722656 -1.984375 2.140625 -3.015625 C 1.566406 -4.046875 1.28125 -5.253906 1.28125 -6.640625 C 1.28125 -8.128906 1.570312 -9.398438 2.15625 -10.453125 C 2.75 -11.503906 3.515625 -12.3125 4.453125 -12.875 C 5.390625 -13.445312 6.382812 -13.734375 7.4375 -13.734375 C 8.207031 -13.734375 8.953125 -13.597656 9.671875 -13.328125 C 10.398438 -13.054688 11.046875 -12.65625 11.609375 -12.125 C 12.179688 -11.59375 12.640625 -10.941406 12.984375 -10.171875 C 13.328125 -9.398438 13.515625 -8.503906 13.546875 -7.484375 C 13.535156 -7.273438 13.445312 -7.09375 13.28125 -6.9375 C 13.125 -6.789062 12.941406 -6.71875 12.734375 -6.71875 L 2.203125 -6.71875 L 1.890625 -8.140625 L 12.234375 -8.140625 L 11.890625 -7.828125 L 11.890625 -8.359375 C 11.828125 -9.179688 11.566406 -9.878906 11.109375 -10.453125 C 10.648438 -11.035156 10.097656 -11.472656 9.453125 -11.765625 C 8.804688 -12.066406 8.132812 -12.21875 7.4375 -12.21875 C 6.90625 -12.21875 6.363281 -12.109375 5.8125 -11.890625 C 5.257812 -11.679688 4.757812 -11.351562 4.3125 -10.90625 C 3.875 -10.46875 3.515625 -9.898438 3.234375 -9.203125 C 2.953125 -8.515625 2.8125 -7.695312 2.8125 -6.75 C 2.8125 -5.71875 3.019531 -4.78125 3.4375 -3.9375 C 3.863281 -3.09375 4.472656 -2.425781 5.265625 -1.9375 C 6.066406 -1.445312 7.015625 -1.203125 8.109375 -1.203125 C 8.722656 -1.203125 9.273438 -1.289062 9.765625 -1.46875 C 10.253906 -1.644531 10.679688 -1.875 11.046875 -2.15625 C 11.421875 -2.445312 11.734375 -2.753906 11.984375 -3.078125 C 12.171875 -3.234375 12.363281 -3.3125 12.5625 -3.3125 C 12.726562 -3.3125 12.878906 -3.238281 13.015625 -3.09375 C 13.148438 -2.957031 13.21875 -2.800781 13.21875 -2.625 C 13.21875 -2.414062 13.128906 -2.234375 12.953125 -2.078125 C 12.421875 -1.441406 11.734375 -0.890625 10.890625 -0.421875 C 10.054688 0.0351562 9.140625 0.265625 8.140625 0.265625 Z M 8.140625 0.265625 "/></g></g><g style="fill:#ffffff;fill-opacity:1;"><g transform="translate(120.558687, 192.23036)"><path style="stroke:none" d="M 2.859375 0 C 2.617188 0 2.425781 -0.078125 2.28125 -0.234375 C 2.144531 -0.390625 2.078125 -0.570312 2.078125 -0.78125 L 2.078125 -12.5625 C 2.078125 -12.769531 2.148438 -12.953125 2.296875 -13.109375 C 2.441406 -13.265625 2.628906 -13.34375 2.859375 -13.34375 C 3.085938 -13.34375 3.273438 -13.265625 3.421875 -13.109375 C 3.578125 -12.953125 3.65625 -12.769531 3.65625 -12.5625 L 3.65625 -8.609375 L 3.25 -8.53125 C 3.300781 -9.144531 3.453125 -9.753906 3.703125 -10.359375 C 3.960938 -10.960938 4.3125 -11.519531 4.75 -12.03125 C 5.1875 -12.539062 5.707031 -12.953125 6.3125 -13.265625 C 6.914062 -13.578125 7.597656 -13.734375 8.359375 -13.734375 C 8.671875 -13.734375 8.972656 -13.664062 9.265625 -13.53125 C 9.566406 -13.40625 9.71875 -13.191406 9.71875 -12.890625 C 9.71875 -12.628906 9.644531 -12.425781 9.5 -12.28125 C 9.363281 -12.144531 9.203125 -12.078125 9.015625 -12.078125 C 8.847656 -12.078125 8.671875 -12.117188 8.484375 -12.203125 C 8.304688 -12.296875 8.070312 -12.34375 7.78125 -12.34375 C 7.289062 -12.34375 6.796875 -12.195312 6.296875 -11.90625 C 5.804688 -11.625 5.359375 -11.234375 4.953125 -10.734375 C 4.554688 -10.242188 4.238281 -9.695312 4 -9.09375 C 3.769531 -8.488281 3.65625 -7.882812 3.65625 -7.28125 L 3.65625 -0.78125 C 3.65625 -0.570312 3.570312 -0.390625 3.40625 -0.234375 C 3.25 -0.078125 3.066406 0 2.859375 0 Z M 2.859375 0 "/></g></g><g style="fill:#ffffff;fill-opacity:1;"><g transform="translate(131.985634, 192.23036)"><path style="stroke:none" d="M 18.015625 -13.703125 C 18.210938 -13.703125 18.394531 -13.632812 18.5625 -13.5 C 18.726562 -13.363281 18.8125 -13.171875 18.8125 -12.921875 C 18.8125 -12.867188 18.800781 -12.804688 18.78125 -12.734375 C 18.757812 -12.671875 18.742188 -12.617188 18.734375 -12.578125 L 14.6875 -0.5 C 14.613281 -0.34375 14.5 -0.210938 14.34375 -0.109375 C 14.195312 -0.015625 14.046875 0.0195312 13.890625 0 C 13.578125 -0.0195312 13.34375 -0.1875 13.1875 -0.5 L 9.484375 -9.21875 L 9.953125 -9.109375 L 6.671875 -0.5 C 6.535156 -0.1875 6.300781 -0.0195312 5.96875 0 C 5.800781 0.0195312 5.640625 -0.015625 5.484375 -0.109375 C 5.328125 -0.210938 5.222656 -0.34375 5.171875 -0.5 L 1.03125 -12.578125 C 0.976562 -12.703125 0.953125 -12.816406 0.953125 -12.921875 C 0.953125 -13.148438 1.023438 -13.335938 1.171875 -13.484375 C 1.316406 -13.628906 1.515625 -13.703125 1.765625 -13.703125 C 1.921875 -13.703125 2.0625 -13.660156 2.1875 -13.578125 C 2.320312 -13.492188 2.414062 -13.363281 2.46875 -13.1875 L 6.203125 -2 L 5.703125 -2.015625 L 9.09375 -10.5625 C 9.226562 -10.894531 9.472656 -11.0625 9.828125 -11.0625 C 10.003906 -11.0625 10.148438 -11.015625 10.265625 -10.921875 C 10.390625 -10.835938 10.488281 -10.71875 10.5625 -10.5625 L 14.15625 -2 L 13.578125 -1.96875 L 17.28125 -13.1875 C 17.382812 -13.53125 17.628906 -13.703125 18.015625 -13.703125 Z M 18.015625 -13.703125 "/></g></g><g style="fill:#ffffff;fill-opacity:1;"><g transform="translate(151.73938, 192.23036)"><path style="stroke:none" d="M 8.140625 0.265625 C 6.796875 0.265625 5.601562 -0.0195312 4.5625 -0.59375 C 3.53125 -1.175781 2.722656 -1.984375 2.140625 -3.015625 C 1.566406 -4.046875 1.28125 -5.253906 1.28125 -6.640625 C 1.28125 -8.128906 1.570312 -9.398438 2.15625 -10.453125 C 2.75 -11.503906 3.515625 -12.3125 4.453125 -12.875 C 5.390625 -13.445312 6.382812 -13.734375 7.4375 -13.734375 C 8.207031 -13.734375 8.953125 -13.597656 9.671875 -13.328125 C 10.398438 -13.054688 11.046875 -12.65625 11.609375 -12.125 C 12.179688 -11.59375 12.640625 -10.941406 12.984375 -10.171875 C 13.328125 -9.398438 13.515625 -8.503906 13.546875 -7.484375 C 13.535156 -7.273438 13.445312 -7.09375 13.28125 -6.9375 C 13.125 -6.789062 12.941406 -6.71875 12.734375 -6.71875 L 2.203125 -6.71875 L 1.890625 -8.140625 L 12.234375 -8.140625 L 11.890625 -7.828125 L 11.890625 -8.359375 C 11.828125 -9.179688 11.566406 -9.878906 11.109375 -10.453125 C 10.648438 -11.035156 10.097656 -11.472656 9.453125 -11.765625 C 8.804688 -12.066406 8.132812 -12.21875 7.4375 -12.21875 C 6.90625 -12.21875 6.363281 -12.109375 5.8125 -11.890625 C 5.257812 -11.679688 4.757812 -11.351562 4.3125 -10.90625 C 3.875 -10.46875 3.515625 -9.898438 3.234375 -9.203125 C 2.953125 -8.515625 2.8125 -7.695312 2.8125 -6.75 C 2.8125 -5.71875 3.019531 -4.78125 3.4375 -3.9375 C 3.863281 -3.09375 4.472656 -2.425781 5.265625 -1.9375 C 6.066406 -1.445312 7.015625 -1.203125 8.109375 -1.203125 C 8.722656 -1.203125 9.273438 -1.289062 9.765625 -1.46875 C 10.253906 -1.644531 10.679688 -1.875 11.046875 -2.15625 C 11.421875 -2.445312 11.734375 -2.753906 11.984375 -3.078125 C 12.171875 -3.234375 12.363281 -3.3125 12.5625 -3.3125 C 12.726562 -3.3125 12.878906 -3.238281 13.015625 -3.09375 C 13.148438 -2.957031 13.21875 -2.800781 13.21875 -2.625 C 13.21875 -2.414062 13.128906 -2.234375 12.953125 -2.078125 C 12.421875 -1.441406 11.734375 -0.890625 10.890625 -0.421875 C 10.054688 0.0351562 9.140625 0.265625 8.140625 0.265625 Z M 8.140625 0.265625 "/></g></g><g style="fill:#ffffff;fill-opacity:1;"><g transform="translate(166.686053, 192.23036)"><path style="stroke:none" d="M 13.078125 -13.421875 C 13.304688 -13.421875 13.492188 -13.34375 13.640625 -13.1875 C 13.796875 -13.03125 13.875 -12.835938 13.875 -12.609375 L 13.875 -0.78125 C 13.875 -0.570312 13.789062 -0.390625 13.625 -0.234375 C 13.46875 -0.078125 13.285156 0 13.078125 0 C 12.847656 0 12.660156 -0.078125 12.515625 -0.234375 C 12.367188 -0.390625 12.296875 -0.570312 12.296875 -0.78125 L 12.296875 -3.90625 L 12.734375 -4.125 C 12.734375 -3.632812 12.597656 -3.132812 12.328125 -2.625 C 12.054688 -2.113281 11.679688 -1.640625 11.203125 -1.203125 C 10.734375 -0.765625 10.179688 -0.410156 9.546875 -0.140625 C 8.910156 0.128906 8.222656 0.265625 7.484375 0.265625 C 6.296875 0.265625 5.234375 -0.0390625 4.296875 -0.65625 C 3.359375 -1.269531 2.617188 -2.109375 2.078125 -3.171875 C 1.546875 -4.242188 1.28125 -5.445312 1.28125 -6.78125 C 1.28125 -8.144531 1.550781 -9.347656 2.09375 -10.390625 C 2.644531 -11.429688 3.382812 -12.25 4.3125 -12.84375 C 5.238281 -13.4375 6.285156 -13.734375 7.453125 -13.734375 C 8.210938 -13.734375 8.921875 -13.601562 9.578125 -13.34375 C 10.234375 -13.082031 10.804688 -12.722656 11.296875 -12.265625 C 11.785156 -11.804688 12.164062 -11.285156 12.4375 -10.703125 C 12.707031 -10.117188 12.84375 -9.507812 12.84375 -8.875 L 12.296875 -9.265625 L 12.296875 -12.609375 C 12.296875 -12.835938 12.367188 -13.03125 12.515625 -13.1875 C 12.660156 -13.34375 12.847656 -13.421875 13.078125 -13.421875 Z M 7.609375 -1.203125 C 8.546875 -1.203125 9.367188 -1.441406 10.078125 -1.921875 C 10.796875 -2.410156 11.359375 -3.078125 11.765625 -3.921875 C 12.179688 -4.773438 12.390625 -5.726562 12.390625 -6.78125 C 12.390625 -7.8125 12.179688 -8.738281 11.765625 -9.5625 C 11.359375 -10.382812 10.796875 -11.039062 10.078125 -11.53125 C 9.367188 -12.019531 8.546875 -12.265625 7.609375 -12.265625 C 6.703125 -12.265625 5.882812 -12.023438 5.15625 -11.546875 C 4.4375 -11.078125 3.867188 -10.429688 3.453125 -9.609375 C 3.046875 -8.785156 2.84375 -7.84375 2.84375 -6.78125 C 2.84375 -5.726562 3.046875 -4.773438 3.453125 -3.921875 C 3.867188 -3.078125 4.429688 -2.410156 5.140625 -1.921875 C 5.859375 -1.441406 6.679688 -1.203125 7.609375 -1.203125 Z M 7.609375 -1.203125 "/></g></g><g style="fill:#ffffff;fill-opacity:1;"><g transform="translate(182.604631, 192.23036)"><path style="stroke:none" d="M 2.859375 0 C 2.617188 0 2.425781 -0.078125 2.28125 -0.234375 C 2.144531 -0.390625 2.078125 -0.570312 2.078125 -0.78125 L 2.078125 -12.5625 C 2.078125 -12.769531 2.148438 -12.953125 2.296875 -13.109375 C 2.441406 -13.265625 2.628906 -13.34375 2.859375 -13.34375 C 3.085938 -13.34375 3.273438 -13.265625 3.421875 -13.109375 C 3.578125 -12.953125 3.65625 -12.769531 3.65625 -12.5625 L 3.65625 -8.609375 L 3.25 -8.53125 C 3.300781 -9.144531 3.453125 -9.753906 3.703125 -10.359375 C 3.960938 -10.960938 4.3125 -11.519531 4.75 -12.03125 C 5.1875 -12.539062 5.707031 -12.953125 6.3125 -13.265625 C 6.914062 -13.578125 7.597656 -13.734375 8.359375 -13.734375 C 8.671875 -13.734375 8.972656 -13.664062 9.265625 -13.53125 C 9.566406 -13.40625 9.71875 -13.191406 9.71875 -12.890625 C 9.71875 -12.628906 9.644531 -12.425781 9.5 -12.28125 C 9.363281 -12.144531 9.203125 -12.078125 9.015625 -12.078125 C 8.847656 -12.078125 8.671875 -12.117188 8.484375 -12.203125 C 8.304688 -12.296875 8.070312 -12.34375 7.78125 -12.34375 C 7.289062 -12.34375 6.796875 -12.195312 6.296875 -11.90625 C 5.804688 -11.625 5.359375 -11.234375 4.953125 -10.734375 C 4.554688 -10.242188 4.238281 -9.695312 4 -9.09375 C 3.769531 -8.488281 3.65625 -7.882812 3.65625 -7.28125 L 3.65625 -0.78125 C 3.65625 -0.570312 3.570312 -0.390625 3.40625 -0.234375 C 3.25 -0.078125 3.066406 0 2.859375 0 Z M 2.859375 0 "/></g></g></g></svg>