<svg xmlns="http://www.w3.org/2000/svg" xmlns:xlink="http://www.w3.org/1999/xlink" width="1920" zoomAndPan="magnify" viewBox="0 0 1440 809.999993" height="1080" preserveAspectRatio="xMidYMid meet" version="1.2"><defs><clipPath id="f464863e9e"><path d="M 768 416.25 L 812 416.25 L 812 482.25 L 768 482.25 Z M 768 416.25 "/></clipPath></defs><g id="a525467712"><g clip-rule="nonzero" clip-path="url(#f464863e9e)"><path style=" stroke:none;fill-rule:nonzero;fill:#1dbbfb;fill-opacity:1;" d="M 785.199219 481.75 C 773.292969 478.75 765.921875 466.667969 768.902344 455.042969 C 770.328125 449.492188 772.597656 445.144531 779.859375 434.070312 C 783.433594 428.625 787.128906 422.398438 788.074219 420.238281 C 789.015625 418.078125 789.957031 416.308594 790.160156 416.308594 C 790.367188 416.308594 791.273438 418.046875 792.175781 420.167969 C 793.078125 422.289062 796.773438 428.515625 800.386719 434 C 807.679688 445.085938 809.867188 449.277344 811.320312 454.976562 C 814.664062 468.082031 805.03125 481.253906 791.515625 482.070312 C 789.269531 482.203125 786.429688 482.058594 785.199219 481.75 Z M 785.199219 481.75 "/></g><g style="fill:#1dbbfb;fill-opacity:1;"><g transform="translate(625.410791, 422.792828)"><path style="stroke:none" d="M 55.71875 1.234375 C 52.039062 1.234375 48.734375 0.378906 45.796875 -1.328125 C 42.867188 -3.035156 40.566406 -5.367188 38.890625 -8.328125 C 37.222656 -11.296875 36.390625 -14.753906 36.390625 -18.703125 L 36.390625 -54.28125 C 36.390625 -56.125 35.945312 -57.796875 35.0625 -59.296875 C 34.175781 -60.796875 32.984375 -61.988281 31.484375 -62.875 C 29.984375 -63.757812 28.347656 -64.203125 26.578125 -64.203125 C 24.804688 -64.203125 23.1875 -63.757812 21.71875 -62.875 C 20.257812 -61.988281 19.101562 -60.796875 18.25 -59.296875 C 17.394531 -57.796875 16.96875 -56.125 16.96875 -54.28125 L 16.96875 0 L 7.15625 0 L 7.15625 -52.953125 C 7.15625 -56.703125 7.972656 -60.078125 9.609375 -63.078125 C 11.242188 -66.078125 13.523438 -68.445312 16.453125 -70.1875 C 19.390625 -71.925781 22.765625 -72.796875 26.578125 -72.796875 C 30.460938 -72.796875 33.867188 -71.925781 36.796875 -70.1875 C 39.734375 -68.445312 42.019531 -66.078125 43.65625 -63.078125 C 45.289062 -60.078125 46.109375 -56.703125 46.109375 -52.953125 L 46.109375 -17.375 C 46.109375 -15.46875 46.550781 -13.78125 47.4375 -12.3125 C 48.320312 -10.851562 49.492188 -9.679688 50.953125 -8.796875 C 52.421875 -7.910156 54.007812 -7.46875 55.71875 -7.46875 C 57.425781 -7.46875 58.992188 -7.910156 60.421875 -8.796875 C 61.847656 -9.679688 62.988281 -10.851562 63.84375 -12.3125 C 64.695312 -13.78125 65.125 -15.46875 65.125 -17.375 L 65.125 -52.953125 C 65.125 -56.703125 65.957031 -60.078125 67.625 -63.078125 C 69.289062 -66.078125 71.585938 -68.445312 74.515625 -70.1875 C 77.453125 -71.925781 80.863281 -72.796875 84.75 -72.796875 C 88.570312 -72.796875 91.945312 -71.925781 94.875 -70.1875 C 97.800781 -68.445312 100.082031 -66.078125 101.71875 -63.078125 C 103.351562 -60.078125 104.171875 -56.703125 104.171875 -52.953125 L 104.171875 0 L 94.359375 0 L 94.359375 -54.28125 C 94.359375 -56.125 93.929688 -57.796875 93.078125 -59.296875 C 92.234375 -60.796875 91.078125 -61.988281 89.609375 -62.875 C 88.140625 -63.757812 86.519531 -64.203125 84.75 -64.203125 C 82.90625 -64.203125 81.25 -63.757812 79.78125 -62.875 C 78.320312 -61.988281 77.148438 -60.796875 76.265625 -59.296875 C 75.378906 -57.796875 74.9375 -56.125 74.9375 -54.28125 L 74.9375 -18.703125 C 74.9375 -14.753906 74.097656 -11.296875 72.421875 -8.328125 C 70.753906 -5.367188 68.472656 -3.035156 65.578125 -1.328125 C 62.679688 0.378906 59.394531 1.234375 55.71875 1.234375 Z M 55.71875 1.234375 "/></g></g><g style="fill:#1dbbfb;fill-opacity:1;"><g transform="translate(736.737293, 422.792828)"><path style="stroke:none" d="M 31.890625 1.234375 C 27.191406 1.234375 22.984375 0.265625 19.265625 -1.671875 C 15.554688 -3.617188 12.660156 -6.332031 10.578125 -9.8125 C 8.503906 -13.289062 7.46875 -17.347656 7.46875 -21.984375 L 7.46875 -52.140625 L 16.96875 -52.140625 L 16.96875 -22.078125 C 16.96875 -18.941406 17.648438 -16.234375 19.015625 -13.953125 C 20.378906 -11.671875 22.203125 -9.914062 24.484375 -8.6875 C 26.765625 -7.457031 29.203125 -6.84375 31.796875 -6.84375 C 34.453125 -6.84375 36.921875 -7.457031 39.203125 -8.6875 C 41.484375 -9.914062 43.320312 -11.671875 44.71875 -13.953125 C 46.125 -16.234375 46.828125 -18.941406 46.828125 -22.078125 L 46.828125 -52.140625 L 56.328125 -52.140625 L 56.328125 -21.984375 C 56.328125 -17.347656 55.269531 -13.289062 53.15625 -9.8125 C 51.050781 -6.332031 48.15625 -3.617188 44.46875 -1.671875 C 40.789062 0.265625 36.597656 1.234375 31.890625 1.234375 Z M 31.890625 1.234375 "/></g></g></g></svg>